<svg width="800" height="234" viewBox="0 0 800 234" fill="none" xmlns="http://www.w3.org/2000/svg">
<path d="M479 91H496.624V97.6903C500.939 91.8049 506.268 90 513.146 90C519.578 90 523.979 91.7164 527.655 97.6903C532.337 91.8049 537.753 90 544.912 90C556.383 90 563 95.3578 563 106.184V141H543.905V113.467C543.905 107.394 542.067 104.589 537.385 104.589C532.704 104.589 530.498 107.483 530.498 113.654V141H511.491V114.126C511.491 107.493 509.654 104.599 504.701 104.599C500.387 104.599 498.094 107.591 498.094 113.378V141H479V90.3976V91Z" fill="white"/>
<path d="M604.204 134.608C599.21 138.998 593.574 141 586.369 141C575.192 141 569 135.339 569 125.558C569 114.774 575.834 111.761 590.341 109.931C599.765 108.747 603.835 109.199 603.835 104.722C603.835 101.892 601.528 100.698 596.815 100.698C592.745 100.698 590.623 102.248 590.254 105.541H571.22C571.405 94.6612 580.274 90 597.467 90C606.434 90 613.268 90.916 616.598 93.1112C621.778 96.5868 622.878 100.236 622.878 106.725V133.78C622.878 135.512 623.617 136.976 625 137.891V140H605.412L604.214 134.598L604.204 134.608ZM588.861 125.008C588.861 127.752 590.798 129.399 594.401 129.399C600.962 129.399 603.738 126.472 603.738 120.079C603.738 119.26 603.738 118.433 603.64 117.615C594.586 120.994 588.852 120.358 588.852 125.018L588.861 125.008Z" fill="white"/>
<path d="M632.01 91H649.123V96.5691C652.97 91.3057 657.906 90 664.867 90C677.217 90 686 99.1569 686 114.947C686 130.737 677.487 140 664.491 140C658.543 140 654.156 139.056 650.762 134.716V159H632V91H632.01ZM658.918 103.593C653.153 103.593 650.772 107.193 650.772 114.947C650.772 122.701 653.423 126.028 658.736 126.028C664.048 126.028 666.698 122.332 666.698 114.947C666.698 107.563 664.231 103.593 658.918 103.593Z" fill="white"/>
<path d="M707.943 124.02C707.943 128.133 710.065 130.145 714.32 130.145C718.574 130.145 720.696 128.681 720.696 126.12C720.696 122.643 717.921 122.277 712.47 121.092C697.314 117.895 690.295 115.246 690.295 104.998C690.295 94.75 698.521 90 714.408 90C729.097 90 737.138 94.2107 738.335 104.266H720.784C720.511 101.434 718.106 99.5077 714.592 99.5077C711.079 99.5077 709.326 100.789 709.326 102.888C709.326 106.366 712.558 106.366 718.662 107.734C733.264 111.027 740 113.676 740 124.184C740 135.241 731.22 141 714.038 141C698.141 141 689.827 135.337 689 124.001H707.943V124.02Z" fill="white"/>
<path d="M260.748 109.949C260.748 101.271 259.157 97.1738 251.746 97.1738C243.869 97.1738 239.175 102.215 239.175 111.168V140.99H230.825V109.959C230.825 101.281 229.234 97.1836 221.822 97.1836C214.035 97.1836 209.252 102.313 209.252 111.177V141H201V91H208.876V98.1172C212.533 92.614 217.415 90 224.164 90C230.351 90 234.481 92.4273 237.574 97.6455C241.795 92.4175 246.676 90 253.337 90C259.997 90 264.593 92.4273 267.034 96.6235C268.911 99.9843 269 104.082 269 109.31V141H260.748V109.969V109.949Z" fill="white"/>
<path d="M320.321 123.975C318.469 134.595 309.971 141 297.954 141C283.889 141 275 131.567 275 116.006C275 99.4342 283.889 90 297.954 90C312.018 90 321 98.701 321 114.26C321 115.447 321 116.643 320.908 117.83H283.992C284.187 127.997 289.661 133.669 298.736 133.669C305.763 133.669 310.455 130.187 311.822 123.965H320.321V123.975ZM312.018 111.155C311.925 102.087 306.935 97.148 298.252 97.148C289.568 97.148 284.774 102 283.992 111.155H312.018Z" fill="white"/>
<path d="M328 91H336.066L336.066 99.9372C338.726 93.2193 343.274 90 349.821 90C350.58 90 351.24 90 352 90.0897V98.8905C351.34 98.8009 350.67 98.8009 350.01 98.8009C341.095 98.8009 336.346 103.724 336.346 112.994V141H328L328 91Z" fill="white"/>
<path d="M376.763 140.702C363.798 140.702 355 130.691 355 115.212C355 99.7339 363.701 90 376.851 90C384.168 90 388.518 93.0976 392.127 97.5569V91H400V138.161C400 152.632 393.513 159 377.407 159C364.355 159 356.941 153.629 356.941 145.076V144.711H364.901V144.893C364.901 149.813 369.164 152.267 377.68 152.267C388.147 152.267 392.127 148.537 392.127 139.887V133.337C388.333 138.257 383.24 140.712 376.754 140.712L376.763 140.702ZM363.526 115.394C363.526 126.95 368.988 133.51 377.875 133.51C387.786 133.51 392.411 127.775 392.411 115.672C392.411 103.57 387.406 97.1925 377.778 97.1925C368.706 97.1925 363.516 103.56 363.516 115.394H363.526Z" fill="white"/>
<path d="M411.222 73H419.583V82.3908H411.222V73ZM411.222 91H419.583V141H411.222V91Z" fill="white"/>
<path d="M462.539 110.286C462.539 101.548 460.546 97.5111 452.556 97.5111C443.334 97.5111 437.827 102.865 437.827 112.542V141H429.466V91H437.446V98.5501C441.251 92.9196 446.478 90 453.417 90C460.927 90 466.054 92.4446 468.817 96.858C470.91 100.054 471 103.904 471 108.693V141H462.539V110.296V110.286Z" fill="white"/>
<path d="M117 159.67H159.66V74.34H117V53H181V181H117V159.67Z" fill="#73D19C"/>
<path d="M82.4724 117C82.4724 136.072 97.9279 151.517 116.99 151.517V82.4819C97.9179 82.4819 82.4724 97.9374 82.4724 117Z" fill="#73D19C"/>
<path d="M117 159.67H74.33V74.34H117V53H53V181H117V159.67Z" fill="white"/>
<path d="M151.518 117C151.518 136.072 136.062 151.517 117 151.517V82.4819C136.072 82.4819 151.518 97.9374 151.518 117Z" fill="white"/>
</svg>
