<?xml version="1.0" encoding="UTF-8" standalone="no"?>
<svg
   xmlns:dc="http://purl.org/dc/elements/1.1/"
   xmlns:cc="http://creativecommons.org/ns#"
   xmlns:rdf="http://www.w3.org/1999/02/22-rdf-syntax-ns#"
   xmlns:svg="http://www.w3.org/2000/svg"
   xmlns="http://www.w3.org/2000/svg"
   xmlns:sodipodi="http://sodipodi.sourceforge.net/DTD/sodipodi-0.dtd"
   xmlns:inkscape="http://www.inkscape.org/namespaces/inkscape"
   viewBox="0 0 616.42999 113.39"
   version="1.1"
   id="svg56"
   sodipodi:docname="mm_logo.svg"
   width="616.42999"
   height="113.39"
   inkscape:version="0.92.5 (2060ec1f9f, 2020-04-08)">
  <metadata
     id="metadata60">
    <rdf:RDF>
      <cc:Work
         rdf:about="">
        <dc:format>image/svg+xml</dc:format>
        <dc:type
           rdf:resource="http://purl.org/dc/dcmitype/StillImage" />
        <dc:title></dc:title>
      </cc:Work>
    </rdf:RDF>
  </metadata>
  <sodipodi:namedview
     pagecolor="#ffffff"
     bordercolor="#666666"
     borderopacity="1"
     objecttolerance="10"
     gridtolerance="10"
     guidetolerance="10"
     inkscape:pageopacity="0"
     inkscape:pageshadow="2"
     inkscape:window-width="1366"
     inkscape:window-height="733"
     id="namedview58"
     showgrid="false"
     fit-margin-top="0"
     fit-margin-left="0"
     fit-margin-right="0"
     fit-margin-bottom="0"
     inkscape:zoom="1.7191321"
     inkscape:cx="308.605"
     inkscape:cy="56.695001"
     inkscape:window-x="0"
     inkscape:window-y="16"
     inkscape:window-maximized="1"
     inkscape:current-layer="svg56" />
  <defs
     id="defs12">
    <style
       id="style10">.e{fill:#2d052d;}.f{fill:#00a884;}</style>
  </defs>
  <g
     id="a"
     transform="translate(-40.99,-46.64)" />
  <g
     id="b"
     transform="translate(-40.99,-46.64)" />
  <g
     id="c"
     transform="translate(-40.99,-46.64)" />
  <g
     id="d"
     transform="translate(-40.99,-46.64)">
    <g
       id="g53">
      <g
         id="g31">
        <g
           id="g25">
          <path
             class="f"
             d="m 420.05,81.03 h 16.13 v 6.55 c 3.95,-5.29 8.82,-7.73 15.12,-7.73 5.88,0 9.91,2.35 13.27,7.73 4.28,-5.29 9.24,-7.81 15.79,-7.81 10.5,0 16.55,5.71 16.55,15.46 v 30.41 h -17.47 v -23.86 c 0,-5.46 -1.68,-7.98 -5.96,-7.98 -4.28,0 -6.3,2.6 -6.3,8.15 v 23.69 h -17.39 v -23.27 c 0,-5.96 -1.68,-8.57 -6.22,-8.57 -3.95,0 -6.05,2.69 -6.05,7.9 v 23.94 h -17.47 v -44.6 z"
             id="path17"
             inkscape:connector-curvature="0"
             style="fill:#00a884" />
          <path
             class="f"
             d="m 534.2,121.35 c -4.54,4.03 -9.66,5.88 -16.21,5.88 -10.16,0 -15.79,-5.21 -15.79,-14.2 0,-9.91 6.22,-12.68 19.4,-14.36 8.57,-1.09 12.26,-0.67 12.26,-4.79 0,-2.6 -2.1,-3.7 -6.38,-3.7 -3.7,0 -5.63,1.43 -5.96,4.45 h -17.3 c 0.17,-10 8.23,-15.2 23.86,-15.2 8.15,0 14.36,1.76 17.39,3.78 4.7,3.19 5.71,6.55 5.71,12.52 v 24.86 c 0,1.6 0.67,2.94 1.93,3.78 v 1.26 H 535.3 l -1.09,-4.28 z m -13.94,-8.82 c 0,2.52 1.76,4.03 5.04,4.03 5.96,0 8.48,-2.69 8.48,-8.57 0,-0.76 0,-1.51 -0.08,-2.27 -8.23,3.11 -13.44,2.52 -13.44,6.8 z"
             id="path19"
             inkscape:connector-curvature="0"
             style="fill:#00a884" />
          <path
             class="f"
             d="m 558.98,81.03 h 15.71 v 5.71 c 3.53,-4.79 8.06,-6.89 14.45,-6.89 11.34,0 19.4,9.24 19.4,23.6 0,14.36 -7.81,23.69 -19.74,23.69 -5.46,0 -9.49,-1.76 -12.6,-5.71 v 22.09 h -17.22 v -62.5 z m 24.7,12.1 c -5.29,0 -7.48,3.28 -7.48,10.33 0,7.05 2.44,10.08 7.31,10.08 4.87,0 7.31,-3.36 7.31,-10.08 0,-6.72 -2.27,-10.33 -7.14,-10.33 z"
             id="path21"
             inkscape:connector-curvature="0"
             style="fill:#00a884" />
          <path
             class="f"
             d="m 628.28,111.61 c 0,3.78 1.93,5.63 5.8,5.63 3.87,0 5.8,-1.34 5.8,-3.7 0,-3.19 -2.52,-3.53 -7.48,-4.62 -13.78,-2.94 -20.16,-5.38 -20.16,-14.78 0,-9.4 7.48,-14.7 21.92,-14.7 13.36,0 20.66,4.79 21.76,14.03 h -15.96 c -0.25,-2.6 -2.44,-4.37 -5.63,-4.37 -3.19,0 -4.79,1.18 -4.79,3.11 0,3.19 2.94,3.19 8.48,4.45 13.27,3.02 19.4,5.46 19.4,15.12 0,10.16 -7.98,15.46 -23.6,15.46 -14.45,0 -22.01,-5.21 -22.76,-15.62 h 17.22 z"
             id="path23"
             inkscape:connector-curvature="0"
             style="fill:#00a884" />
        </g>
        <polygon
           class="f"
           points="135.47,65.54 97.68,65.54 97.68,46.64 154.37,46.64 154.37,160.03 97.68,160.03 97.68,141.13 135.47,141.13 "
           id="polygon27"
           style="fill:#00a884" />
        <path
           class="f"
           d="m 67.1,103.33 c 0,16.89 13.69,30.58 30.58,30.58 V 72.76 c -16.89,0 -30.58,13.69 -30.58,30.57 z"
           id="path29"
           inkscape:connector-curvature="0"
           style="fill:#00a884" />
      </g>
      <g
         id="g51">
        <g
           id="g45">
          <path
             class="e"
             d="m 226.82,97.67 c 0,-7.81 -1.43,-11.51 -8.06,-11.51 -7.06,0 -11.26,4.54 -11.26,12.6 v 25.96 h -7.48 V 97.67 c 0,-7.81 -1.43,-11.51 -8.06,-11.51 -6.97,0 -11.26,4.62 -11.26,12.6 v 25.96 h -7.39 V 80.79 h 7.06 v 6.22 c 3.28,-4.96 7.64,-7.31 13.69,-7.31 5.54,0 9.24,2.18 12.01,6.89 3.78,-4.7 8.15,-6.89 14.11,-6.89 5.96,0 10.08,2.18 12.26,5.96 1.68,3.02 1.76,6.72 1.76,11.42 v 27.64 h -7.39 V 97.67 Z"
             id="path33"
             inkscape:connector-curvature="0"
             style="fill:#2d052d" />
          <path
             class="e"
             d="m 279.74,110.52 c -1.6,9.74 -8.9,15.62 -19.24,15.62 -12.1,0 -19.74,-8.65 -19.74,-22.93 0,-15.2 7.64,-23.86 19.74,-23.86 12.1,0 19.82,7.98 19.82,22.26 0,1.09 0,2.18 -0.08,3.28 h -31.75 c 0.17,9.32 4.87,14.53 12.68,14.53 6.05,0 10.08,-3.19 11.26,-8.9 z M 272.6,98.76 c -0.08,-8.32 -4.37,-12.85 -11.84,-12.85 -7.47,0 -11.59,4.45 -12.26,12.85 h 24.11 z"
             id="path35"
             inkscape:connector-curvature="0"
             style="fill:#2d052d" />
          <path
             class="e"
             d="m 286.29,80.78 h 7.14 v 7.9 c 2.35,-5.96 6.38,-8.82 12.18,-8.82 0.67,0 1.26,0 1.93,0.08 v 7.81 c -0.59,-0.08 -1.18,-0.08 -1.76,-0.08 -7.9,0 -12.1,4.37 -12.1,12.6 v 24.44 h -7.39 z"
             id="path37"
             inkscape:connector-curvature="0"
             style="fill:#2d052d" />
          <path
             class="e"
             d="m 329.3,126.14 c -11.76,0 -19.74,-9.24 -19.74,-23.52 0,-14.28 7.9,-23.27 19.82,-23.27 6.64,0 10.58,2.86 13.86,6.97 v -5.54 h 7.14 v 43.01 c 0,13.36 -5.88,19.24 -20.5,19.24 -11.84,0 -18.56,-4.96 -18.56,-12.85 v -0.34 h 7.22 v 0.17 c 0,4.54 3.86,6.8 11.59,6.8 9.49,0 13.1,-3.44 13.1,-11.42 v -6.05 c -3.44,4.54 -8.06,6.8 -13.94,6.8 z m -12.01,-23.35 c 0,10.67 4.96,16.72 13.02,16.72 8.99,0 13.19,-5.29 13.19,-16.46 C 343.5,91.88 338.96,86 330.23,86 322,86 317.29,91.88 317.29,102.8 Z"
             id="path39"
             inkscape:connector-curvature="0"
             style="fill:#2d052d" />
          <path
             class="e"
             d="m 359.12,64.32 h 7.39 v 8.4 h -7.39 z m 0,16.46 h 7.39 v 43.93 h -7.39 z"
             id="path41"
             inkscape:connector-curvature="0"
             style="fill:#2d052d" />
          <path
             class="e"
             d="m 404.48,97.67 c 0,-7.81 -1.76,-11.42 -8.82,-11.42 -8.15,0 -13.02,4.79 -13.02,13.44 v 25.03 h -7.39 V 80.79 h 7.06 v 6.38 c 3.36,-5.04 7.98,-7.48 14.11,-7.48 6.64,0 11.17,2.02 13.61,5.96 1.85,2.86 1.93,6.3 1.93,10.58 v 28.48 h -7.48 V 97.66 Z"
             id="path43"
             inkscape:connector-curvature="0"
             style="fill:#2d052d" />
        </g>
        <polygon
           class="e"
           points="59.88,65.54 97.68,65.54 97.68,46.64 40.99,46.64 40.99,160.03 97.68,160.03 97.68,141.13 59.88,141.13 "
           id="polygon47"
           style="fill:#2d052d" />
        <path
           class="e"
           d="m 128.26,103.33 c 0,16.89 -13.69,30.58 -30.58,30.58 V 72.76 c 16.89,0 30.58,13.69 30.58,30.57 z"
           id="path49"
           inkscape:connector-curvature="0"
           style="fill:#2d052d" />
      </g>
    </g>
  </g>
</svg>
