<?xml version="1.0" encoding="UTF-8" standalone="no"?>
<svg
   xmlns:dc="http://purl.org/dc/elements/1.1/"
   xmlns:cc="http://creativecommons.org/ns#"
   xmlns:rdf="http://www.w3.org/1999/02/22-rdf-syntax-ns#"
   xmlns:svg="http://www.w3.org/2000/svg"
   xmlns="http://www.w3.org/2000/svg"
   xmlns:sodipodi="http://sodipodi.sourceforge.net/DTD/sodipodi-0.dtd"
   xmlns:inkscape="http://www.inkscape.org/namespaces/inkscape"
   width="512"
   height="512"
   viewBox="0 0 135.46496 135.46496"
   version="1.1"
   id="svg847"
   inkscape:version="1.0.1 (3bc2e813f5, 2020-09-07)"
   sodipodi:docname="mergin_project_status.svg">
  <defs
     id="defs841" />
  <sodipodi:namedview
     id="base"
     pagecolor="#ffffff"
     bordercolor="#666666"
     borderopacity="1.0"
     inkscape:pageopacity="0.0"
     inkscape:pageshadow="2"
     inkscape:zoom="2.8"
     inkscape:cx="350.97702"
     inkscape:cy="294.89942"
     inkscape:document-units="px"
     inkscape:current-layer="layer1"
     inkscape:document-rotation="0"
     showgrid="false"
     fit-margin-top="0"
     fit-margin-left="0"
     fit-margin-right="0"
     fit-margin-bottom="0"
     units="px"
     inkscape:window-width="1848"
     inkscape:window-height="1136"
     inkscape:window-x="72"
     inkscape:window-y="27"
     inkscape:window-maximized="1" />
  <metadata
     id="metadata844">
    <rdf:RDF>
      <cc:Work
         rdf:about="">
        <dc:format>image/svg+xml</dc:format>
        <dc:type
           rdf:resource="http://purl.org/dc/dcmitype/StillImage" />
        <dc:title />
      </cc:Work>
    </rdf:RDF>
  </metadata>
  <g
     inkscape:label="Layer 1"
     inkscape:groupmode="layer"
     id="layer1"
     transform="translate(-51.1841,-42.43511)">
    <path
       style="fill:#fe9627;fill-opacity:1;stroke-width:0.727384"
       d="m 86.349888,45.08091 c -1.904181,0 -29.796318,15.637834 -29.796318,16.719492 7.608592,5.268888 13.318201,8.480546 21.496779,13.543647 3.400525,2.098747 6.274857,3.84018 6.387331,3.869895 0.197082,0.05227 30.87341,-17.334559 31.2647,-17.720016 C 116.12779,61.074844 87.524764,45.08091 86.349888,45.08091 Z m 30.979162,19.034151 -14.72241,8.359223 c -8.097121,4.597644 -15.111068,8.684004 -15.587607,9.079503 -0.950629,0.788924 -1.437316,32.644563 -0.51285,33.569043 0.274965,0.27497 2.681179,-0.7244 5.347413,-2.2205 18.399584,-10.32454 23.992624,-13.790062 24.696934,-15.302051 0.47818,-1.026446 0.77858,-7.805676 0.77858,-17.577962 z m -62.877491,0.137684 c -0.307629,2.9344 -0.586516,8.266633 -0.619379,15.769461 -0.03317,7.502805 0.298986,16.551482 0.777063,17.577951 0.704302,1.512001 4.460408,4.977523 22.859997,15.302043 2.666228,1.49607 5.072493,2.49545 5.347408,2.22051 0.924493,-0.92451 0.439181,-32.7801 -0.511442,-33.569034 C 81.828639,81.15821 74.450618,77.658743 66.71617,72.474173 Z"
       id="path891"
       inkscape:connector-curvature="0"
       sodipodi:nodetypes="sccccsccccccsccccccccc" />
    <path
       d="m 138.43218,83.744284 c -25.56982,0 -46.301499,20.739146 -46.301499,46.301496 0,25.57729 20.731679,46.30151 46.301499,46.30151 25.56982,0 46.3015,-20.72422 46.3015,-46.30151 0,-25.56235 -20.73169,-46.301496 -46.3015,-46.301496 z m 0.42355,12.600577 c 6.34654,0 11.49139,4.799969 11.49139,10.721049 0,5.9211 -5.14485,10.72107 -11.49139,10.72107 -6.34653,0 -11.49139,-4.79997 -11.49139,-10.72107 0,-5.92108 5.14486,-10.721049 11.49139,-10.721049 z m 15.32186,64.836849 c 0,1.69163 -1.47012,3.06316 -3.28326,3.06316 h -24.0772 c -1.81318,0 -3.28325,-1.37153 -3.28325,-3.06316 v -6.12632 c 0,-1.69274 1.47007,-3.06315 3.28325,-3.06315 h 3.28326 V 135.6554 h -3.28326 c -1.81176,0 -3.28325,-1.37153 -3.28325,-3.06317 v -6.12631 c 0,-1.69282 1.47007,-3.06315 3.28325,-3.06315 h 17.51069 c 1.81314,0 3.28326,1.37153 3.28326,3.06315 v 25.52632 h 3.28325 c 1.81193,0 3.28326,1.37097 3.28326,3.06315 z"
       id="path2130-3"
       style="fill:#969696;fill-opacity:1;stroke:#000000;stroke-width:2.11664;stroke-miterlimit:4;stroke-dasharray:none;stroke-opacity:1"
       sodipodi:nodetypes="ssssssssssssssssccsssssscsss" />
  </g>
</svg>
