<?xml version="1.0" encoding="UTF-8" standalone="no"?>
<svg
   xmlns:dc="http://purl.org/dc/elements/1.1/"
   xmlns:cc="http://creativecommons.org/ns#"
   xmlns:rdf="http://www.w3.org/1999/02/22-rdf-syntax-ns#"
   xmlns:svg="http://www.w3.org/2000/svg"
   xmlns="http://www.w3.org/2000/svg"
   xmlns:sodipodi="http://sodipodi.sourceforge.net/DTD/sodipodi-0.dtd"
   xmlns:inkscape="http://www.inkscape.org/namespaces/inkscape"
   width="512"
   height="512"
   viewBox="0 0 135.46496 135.46496"
   version="1.1"
   id="svg847"
   inkscape:version="1.0.1 (3bc2e813f5, 2020-09-07)"
   sodipodi:docname="mergin_configure.svg">
  <defs
     id="defs841" />
  <sodipodi:namedview
     id="base"
     pagecolor="#ffffff"
     bordercolor="#666666"
     borderopacity="1.0"
     inkscape:pageopacity="0.0"
     inkscape:pageshadow="2"
     inkscape:zoom="0.9899495"
     inkscape:cx="281.41889"
     inkscape:cy="283.98283"
     inkscape:document-units="px"
     inkscape:current-layer="layer1"
     inkscape:document-rotation="0"
     showgrid="false"
     fit-margin-top="0"
     fit-margin-left="0"
     fit-margin-right="0"
     fit-margin-bottom="0"
     units="px"
     inkscape:window-width="1848"
     inkscape:window-height="1136"
     inkscape:window-x="72"
     inkscape:window-y="27"
     inkscape:window-maximized="1" />
  <metadata
     id="metadata844">
    <rdf:RDF>
      <cc:Work
         rdf:about="">
        <dc:format>image/svg+xml</dc:format>
        <dc:type
           rdf:resource="http://purl.org/dc/dcmitype/StillImage" />
        <dc:title />
      </cc:Work>
    </rdf:RDF>
  </metadata>
  <g
     inkscape:label="Layer 1"
     inkscape:groupmode="layer"
     id="layer1"
     transform="translate(-51.1841,-42.43511)">
    <path
       style="fill:#fe9627;fill-opacity:1;stroke-width:0.727384"
       d="m 86.349884,45.08091 c -1.90418,0 -29.79631,15.637831 -29.79631,16.719489 7.60859,5.268887 13.31819,8.480545 21.49677,13.543646 3.40053,2.098744 6.27486,3.840178 6.38733,3.869893 0.19708,0.05227 30.873406,-17.334556 31.264686,-17.720012 C 116.12778,61.074841 87.524754,45.08091 86.349884,45.08091 Z m 30.979156,19.034147 -14.72241,8.359223 c -8.097126,4.597642 -15.111066,8.684002 -15.587606,9.079501 -0.95062,0.788923 -1.43731,32.644569 -0.51285,33.569039 0.27497,0.27498 2.68118,-0.72439 5.34741,-2.22049 18.399586,-10.32454 23.992626,-13.790065 24.696936,-15.302055 0.47818,-1.02645 0.77858,-7.805679 0.77858,-17.577964 z m -62.877476,0.137685 c -0.30763,2.934399 -0.58652,8.266631 -0.61938,15.769457 -0.0332,7.502804 0.29898,16.551476 0.77706,17.577946 0.7043,1.51201 4.46041,4.977545 22.85999,15.302045 2.66623,1.49608 5.07249,2.49546 5.34741,2.22051 0.92449,-0.9245 0.43918,-32.780096 -0.51144,-33.569031 -0.47657,-0.395466 -7.85459,-3.894932 -15.58904,-9.0795 z"
       id="path891"
       inkscape:connector-curvature="0"
       sodipodi:nodetypes="sccccsccccccsccccccccc" />
    <path
       d="m 184.09729,139.57928 -8.34003,-4.81608 c 0.84183,-4.542 0.84183,-9.20146 0,-13.74344 l 8.34003,-4.81609 c 0.95932,-0.54818 1.39002,-1.68368 1.07677,-2.74087 -2.1731,-6.96961 -5.87327,-13.27358 -10.70893,-18.520367 -0.74395,-0.802675 -1.95775,-0.998463 -2.89747,-0.450288 l -8.34004,4.816088 c -3.5044,-3.01495 -7.53736,-5.344675 -11.90317,-6.871725 v -9.612587 c 0,-1.09635 -0.76352,-2.055647 -1.84029,-2.290577 -7.18496,-1.605362 -14.54613,-1.527052 -21.3787,0 -1.07677,0.23493 -1.8403,1.194227 -1.8403,2.290577 v 9.632162 c -4.34621,1.546625 -8.37919,3.876362 -11.90316,6.871725 l -8.32046,-4.816088 c -0.9593,-0.548162 -2.15353,-0.371962 -2.89748,0.450288 -4.835659,5.227212 -8.535819,11.531182 -10.708929,18.520372 -0.332819,1.0572 0.117462,2.19269 1.076766,2.74086 l 8.340043,4.81609 c -0.84184,4.54199 -0.84184,9.20145 0,13.74345 l -8.340043,4.81607 c -0.959301,0.54818 -1.390007,1.68368 -1.076766,2.74086 2.17311,6.96962 5.87327,13.27359 10.708929,18.52038 0.74395,0.80269 1.95776,0.99846 2.89748,0.45028 l 8.34004,-4.81607 c 3.50439,3.01494 7.53737,5.34466 11.90317,6.87172 v 9.63217 c 0,1.09633 0.76352,2.05563 1.84029,2.29057 7.18497,1.60535 14.54613,1.52705 21.37871,0 1.07676,-0.23494 1.84028,-1.19424 1.84028,-2.29057 v -9.63217 c 4.34623,-1.54663 8.37919,-3.87636 11.90315,-6.87172 l 8.34005,4.81607 c 0.9593,0.54818 2.15354,0.37198 2.89749,-0.45028 4.83565,-5.2272 8.53581,-11.53119 10.70892,-18.52038 0.29367,-1.07677 -0.13703,-2.21226 -1.09635,-2.76043 z m -45.30248,3.97425 c -8.63371,0 -15.66205,-7.02835 -15.66205,-15.66207 0,-8.63369 7.02834,-15.66204 15.66205,-15.66204 8.63371,0 15.66205,7.02835 15.66205,15.66204 0,8.63372 -7.02834,15.66207 -15.66205,15.66207 z"
       id="path1438"
       style="stroke:#000000;stroke-width:2.11664;stroke-miterlimit:4;stroke-dasharray:none;fill:#969696;fill-opacity:1;stroke-opacity:1" />
  </g>
</svg>
