<?xml version="1.0" encoding="UTF-8" standalone="no"?>
<svg
   xmlns:dc="http://purl.org/dc/elements/1.1/"
   xmlns:cc="http://creativecommons.org/ns#"
   xmlns:rdf="http://www.w3.org/1999/02/22-rdf-syntax-ns#"
   xmlns:svg="http://www.w3.org/2000/svg"
   xmlns="http://www.w3.org/2000/svg"
   xmlns:sodipodi="http://sodipodi.sourceforge.net/DTD/sodipodi-0.dtd"
   xmlns:inkscape="http://www.inkscape.org/namespaces/inkscape"
   width="512"
   height="512"
   viewBox="0 0 135.46496 135.46496"
   version="1.1"
   id="svg847"
   inkscape:version="1.0.1 (3bc2e813f5, 2020-09-07)"
   sodipodi:docname="mergin_project_sync.svg">
  <defs
     id="defs841" />
  <sodipodi:namedview
     id="base"
     pagecolor="#ffffff"
     bordercolor="#666666"
     borderopacity="1.0"
     inkscape:pageopacity="0.0"
     inkscape:pageshadow="2"
     inkscape:zoom="0.9899495"
     inkscape:cx="377.28248"
     inkscape:cy="319.51115"
     inkscape:document-units="px"
     inkscape:current-layer="layer1"
     inkscape:document-rotation="0"
     showgrid="false"
     fit-margin-top="0"
     fit-margin-left="0"
     fit-margin-right="0"
     fit-margin-bottom="0"
     units="px"
     inkscape:window-width="1848"
     inkscape:window-height="1136"
     inkscape:window-x="72"
     inkscape:window-y="27"
     inkscape:window-maximized="1" />
  <metadata
     id="metadata844">
    <rdf:RDF>
      <cc:Work
         rdf:about="">
        <dc:format>image/svg+xml</dc:format>
        <dc:type
           rdf:resource="http://purl.org/dc/dcmitype/StillImage" />
        <dc:title />
      </cc:Work>
    </rdf:RDF>
  </metadata>
  <g
     inkscape:label="Layer 1"
     inkscape:groupmode="layer"
     id="layer1"
     transform="translate(-51.1841,-42.43511)">
    <path
       style="fill:#fe9627;fill-opacity:1;stroke-width:0.727384"
       d="m 86.349888,45.08091 c -1.904181,0 -29.796318,15.637834 -29.796318,16.719492 7.608592,5.268888 13.318201,8.480546 21.496779,13.543647 3.400525,2.098747 6.274857,3.84018 6.387331,3.869895 0.197082,0.05227 30.8734,-17.334559 31.26469,-17.720016 C 116.12778,61.074844 87.524764,45.08091 86.349888,45.08091 Z m 30.979152,19.034151 -14.72241,8.359223 c -8.097116,4.597644 -15.111058,8.684004 -15.587597,9.079503 -0.950629,0.788924 -1.437316,32.644563 -0.51285,33.569043 0.274965,0.27497 2.681179,-0.7244 5.347413,-2.2205 18.399574,-10.32454 23.992614,-13.790062 24.696924,-15.302051 0.47818,-1.026446 0.77858,-7.805676 0.77858,-17.577962 z m -62.877481,0.137684 c -0.307629,2.9344 -0.586516,8.266633 -0.619379,15.769461 -0.03317,7.502805 0.298986,16.551482 0.777063,17.577951 0.704302,1.512001 4.460408,4.977523 22.859997,15.302043 2.666228,1.49607 5.072493,2.49545 5.347408,2.22051 0.924493,-0.92451 0.439181,-32.7801 -0.511442,-33.569034 C 81.828639,81.15821 74.450618,77.658743 66.71617,72.474173 Z"
       id="path891"
       inkscape:connector-curvature="0"
       sodipodi:nodetypes="sccccsccccccsccccccccc" />
    <path
       d="m 172.19275,86.019899 0.72346,14.970211 A 44.702652,44.702652 0 0 0 138.76523,85.193345 c -21.90277,0 -40.137606,15.720805 -44.047912,36.502225 a 2.1703828,2.1703828 0 0 0 2.134209,2.56467 h 8.871443 a 2.1703828,2.1703828 0 0 0 2.11069,-1.67481 31.816004,31.816004 0 0 1 57.33428,-10.29847 l -18.35059,-0.87901 a 2.1703828,2.1703828 0 0 0 -2.27347,2.17038 v 8.57483 a 2.1703828,2.1703828 0 0 0 2.17038,2.17038 h 36.21284 a 2.1703828,2.1703828 0 0 0 2.17038,-2.17038 V 85.916806 a 2.1703828,2.1703828 0 0 0 -2.17038,-2.170383 h -8.56758 a 2.1703828,2.1703828 0 0 0 -2.16677,2.273476 z M 138.76523,161.88021 A 31.761744,31.761744 0 0 1 112.35891,147.8089 l 18.41208,0.88081 a 2.1703828,2.1703828 0 0 0 2.27348,-2.17039 v -8.57301 a 2.1703828,2.1703828 0 0 0 -2.17038,-2.17038 H 94.664867 a 2.1703828,2.1703828 0 0 0 -2.170383,2.17038 v 36.23274 a 2.1703828,2.1703828 0 0 0 2.170383,2.17038 h 8.563973 a 2.1703828,2.1703828 0 0 0 2.17038,-2.2789 l -0.75059,-14.93405 a 44.704461,44.704461 0 0 0 34.1166,15.76603 c 21.9046,0 40.13942,-15.72081 44.04973,-36.50223 a 2.1703828,2.1703828 0 0 0 -2.13421,-2.56466 h -8.87144 a 2.1703828,2.1703828 0 0 0 -2.11069,1.67481 31.80696,31.80696 0 0 1 -30.93339,24.36978 z"
       id="path2787"
       style="stroke-width:2.11664;fill:#969696;fill-opacity:1;stroke-miterlimit:4;stroke-dasharray:none;stroke:#000000;stroke-opacity:1" />
  </g>
</svg>
