<?xml version="1.0" encoding="UTF-8"?><svg id="a" xmlns="http://www.w3.org/2000/svg" viewBox="0 0 108 108"><defs><style>.b{fill:#2a102c;}.c{fill:#00a884;}</style></defs><g><polygon class="c" points="54 78 78 78 78 30 54 30 54 18 90 18 90 90 54 90 54 78"/><polygon class="b" points="54 90 18 90 18 18 54 18 54 30 30 30 30 78 54 78 54 90"/></g><g><path class="c" d="M34.58,54c0,10.73,8.69,19.42,19.42,19.42V34.58c-10.73,0-19.42,8.69-19.42,19.41Z"/><path class="b" d="M54,34.58v38.83c10.73,0,19.42-8.69,19.42-19.42s-8.69-19.41-19.42-19.41Z"/></g></svg>