<?xml version="1.0" encoding="UTF-8" standalone="no"?>
<svg
   id="a"
   viewBox="0 0 72 72"
   version="1.1"
   sodipodi:docname="mm_icon_positive_no_padding.svg"
   width="72"
   height="72"
   inkscape:version="1.1.2 (b8e25be8, 2022-02-05)"
   xmlns:inkscape="http://www.inkscape.org/namespaces/inkscape"
   xmlns:sodipodi="http://sodipodi.sourceforge.net/DTD/sodipodi-0.dtd"
   xmlns="http://www.w3.org/2000/svg"
   xmlns:svg="http://www.w3.org/2000/svg">
  <sodipodi:namedview
     id="namedview455"
     pagecolor="#ffffff"
     bordercolor="#666666"
     borderopacity="1.0"
     inkscape:pageshadow="2"
     inkscape:pageopacity="0.0"
     inkscape:pagecheckerboard="0"
     showgrid="false"
     inkscape:zoom="8.0833333"
     inkscape:cx="37.670103"
     inkscape:cy="39.154639"
     inkscape:window-width="1296"
     inkscape:window-height="1081"
     inkscape:window-x="2240"
     inkscape:window-y="25"
     inkscape:window-maximized="0"
     inkscape:current-layer="a" />
  <defs
     id="defs440">
    <style
       id="style438">.b{fill:#2a102c;}.c{fill:#00a884;}</style>
  </defs>
  <g
     id="g446"
     transform="translate(-18,-18)">
    <polygon
       class="c"
       points="78,30 54,30 54,18 90,18 90,90 54,90 54,78 78,78 "
       id="polygon442" />
    <polygon
       class="b"
       points="18,18 54,18 54,30 30,30 30,78 54,78 54,90 18,90 "
       id="polygon444" />
  </g>
  <g
     id="g452"
     transform="translate(-18,-18)">
    <path
       class="c"
       d="m 34.58,54 c 0,10.73 8.69,19.42 19.42,19.42 V 34.58 c -10.73,0 -19.42,8.69 -19.42,19.41 z"
       id="path448" />
    <path
       class="b"
       d="m 54,34.58 v 38.83 c 10.73,0 19.42,-8.69 19.42,-19.42 C 73.42,43.26 64.73,34.58 54,34.58 Z"
       id="path450" />
  </g>
</svg>
