<svg width="800" height="234" viewBox="0 0 800 234" fill="none" xmlns="http://www.w3.org/2000/svg">
<path d="M476 88H493.624V94.6903C497.939 88.8049 503.268 87 510.146 87C516.578 87 520.979 88.7164 524.655 94.6903C529.337 88.8049 534.753 87 541.912 87C553.383 87 560 92.3578 560 103.184V138H540.905V110.467C540.905 104.394 539.067 101.589 534.385 101.589C529.704 101.589 527.498 104.483 527.498 110.654V138H508.491V111.126C508.491 104.493 506.654 101.599 501.701 101.599C497.387 101.599 495.094 104.591 495.094 110.378V138H476V87.3976V88Z" fill="#12181F"/>
<path d="M601.204 131.608C596.21 135.998 590.574 138 583.369 138C572.192 138 566 132.339 566 122.558C566 111.774 572.834 108.761 587.341 106.931C596.765 105.747 600.835 106.199 600.835 101.722C600.835 98.8923 598.528 97.698 593.815 97.698C589.745 97.698 587.623 99.2477 587.254 102.541H568.22C568.405 91.6612 577.274 87 594.467 87C603.434 87 610.268 87.916 613.598 90.1112C618.778 93.5868 619.878 97.236 619.878 103.725V130.78C619.878 132.512 620.617 133.976 622 134.891V137H602.412L601.214 131.598L601.204 131.608ZM585.861 122.008C585.861 124.752 587.798 126.399 591.401 126.399C597.962 126.399 600.738 123.472 600.738 117.079C600.738 116.26 600.738 115.433 600.64 114.615C591.586 117.994 585.852 117.358 585.852 122.018L585.861 122.008Z" fill="#12181F"/>
<path d="M629.01 88H646.123V93.5691C649.97 88.3057 654.906 87 661.867 87C674.217 87 683 96.1569 683 111.947C683 127.737 674.487 137 661.491 137C655.543 137 651.156 136.056 647.762 131.716V156H629V88H629.01ZM655.918 100.593C650.153 100.593 647.772 104.193 647.772 111.947C647.772 119.701 650.423 123.028 655.736 123.028C661.048 123.028 663.698 119.332 663.698 111.947C663.698 104.563 661.231 100.593 655.918 100.593Z" fill="#12181F"/>
<path d="M704.943 121.02C704.943 125.133 707.065 127.145 711.32 127.145C715.574 127.145 717.696 125.681 717.696 123.12C717.696 119.643 714.921 119.277 709.47 118.092C694.314 114.895 687.295 112.246 687.295 101.998C687.295 91.75 695.521 87 711.408 87C726.097 87 734.138 91.2107 735.335 101.266H717.784C717.511 98.4339 715.106 96.5077 711.592 96.5077C708.079 96.5077 706.326 97.7886 706.326 99.8882C706.326 103.366 709.558 103.366 715.662 104.734C730.264 108.027 737 110.676 737 121.184C737 132.241 728.22 138 711.038 138C695.141 138 686.827 132.337 686 121.001H704.943V121.02Z" fill="#12181F"/>
<path d="M257.748 106.949C257.748 98.2714 256.157 94.1738 248.746 94.1738C240.869 94.1738 236.175 99.2148 236.175 108.168V137.99H227.825V106.959C227.825 98.2813 226.234 94.1836 218.822 94.1836C211.035 94.1836 206.252 99.3132 206.252 108.177V138H198V88H205.876V95.1172C209.533 89.614 214.415 87 221.164 87C227.351 87 231.481 89.4273 234.574 94.6455C238.795 89.4175 243.676 87 250.337 87C256.997 87 261.593 89.4273 264.034 93.6235C265.911 96.9843 266 101.082 266 106.31V138H257.748V106.969V106.949Z" fill="#12181F"/>
<path d="M317.321 120.975C315.469 131.595 306.971 138 294.954 138C280.889 138 272 128.567 272 113.006C272 96.4342 280.889 87 294.954 87C309.018 87 318 95.701 318 111.26C318 112.447 318 113.643 317.908 114.83H280.992C281.187 124.997 286.661 130.669 295.736 130.669C302.763 130.669 307.455 127.187 308.822 120.965H317.321V120.975ZM309.018 108.155C308.925 99.0867 303.935 94.148 295.252 94.148C286.568 94.148 281.774 99 280.992 108.155H309.018Z" fill="#12181F"/>
<path d="M325 88H333.066L333.066 96.9372C335.726 90.2193 340.274 87 346.821 87C347.58 87 348.24 87 349 87.0897V95.8905C348.34 95.8009 347.67 95.8009 347.01 95.8009C338.095 95.8009 333.346 100.724 333.346 109.994V138H325L325 88Z" fill="#12181F"/>
<path d="M373.763 137.702C360.798 137.702 352 127.691 352 112.212C352 96.7339 360.701 87 373.851 87C381.168 87 385.518 90.0976 389.127 94.5569V88H397V135.161C397 149.632 390.513 156 374.407 156C361.355 156 353.941 150.629 353.941 142.076V141.711H361.901V141.893C361.901 146.813 366.164 149.267 374.68 149.267C385.147 149.267 389.127 145.537 389.127 136.887V130.337C385.333 135.257 380.24 137.712 373.754 137.712L373.763 137.702ZM360.526 112.394C360.526 123.95 365.988 130.51 374.875 130.51C384.786 130.51 389.411 124.775 389.411 112.672C389.411 100.57 384.406 94.1925 374.778 94.1925C365.706 94.1925 360.516 100.56 360.516 112.394H360.526Z" fill="#12181F"/>
<path d="M408.222 70H416.583V79.3908H408.222V70ZM408.222 88H416.583V138H408.222V88Z" fill="#12181F"/>
<path d="M459.539 107.286C459.539 98.548 457.546 94.5111 449.556 94.5111C440.334 94.5111 434.827 99.865 434.827 109.542V138H426.466V88H434.446V95.5501C438.251 89.9196 443.478 87 450.417 87C457.927 87 463.054 89.4446 465.817 93.858C467.91 97.054 468 100.904 468 105.693V138H459.539V107.296V107.286Z" fill="#12181F"/>
<path d="M114 156.67H156.66V71.34H114V50H178V178H114V156.67Z" fill="#73D19C"/>
<path d="M79.4724 114C79.4724 133.072 94.9279 148.517 113.99 148.517V79.4819C94.9179 79.4819 79.4724 94.9374 79.4724 114Z" fill="#73D19C"/>
<path d="M114 156.67H71.33V71.34H114V50H50V178H114V156.67Z" fill="#12181F"/>
<path d="M148.518 114C148.518 133.072 133.062 148.517 114 148.517V79.4819C133.072 79.4819 148.518 94.9374 148.518 114Z" fill="#12181F"/>
</svg>
